<svg xmlns="http://www.w3.org/2000/svg" width="32" height="33" viewBox="0 0 32 33">
    <defs>
        <filter id="h4fok3gtwa">
            <feColorMatrix in="SourceGraphic" values="0 0 0 0 1.000000 0 0 0 0 1.000000 0 0 0 0 1.000000 0 0 0 1.000000 0"/>
        </filter>
    </defs>
    <g fill="none" fill-rule="evenodd">
        <g>
            <g>
                <g>
                    <g>
                        <g>
                            <g filter="url(#h4fok3gtwa)" transform="translate(-1172 -1511) translate(25 1395) translate(40 24.146) translate(1019) translate(0 70.427) translate(0 22.134)">
                                <g>
                                    <path fill="#000" fill-rule="nonzero" d="M22.312 17.903c-.092-.047-.19-.082-.289-.109V14.4c.1-.027.197-.06.29-.107.662-.339.89-1.093.508-1.68-.384-.588-1.234-.791-1.897-.451-.076.038-.143.083-.207.131l-3.348-1.74c.016-.073.026-.147.026-.224 0-.678-.623-1.23-1.389-1.23-.765 0-1.388.552-1.388 1.23 0 .077.01.15.025.224l-3.348 1.74c-.064-.048-.131-.093-.206-.131-.664-.34-1.515-.137-1.897.45-.383.588-.155 1.342.508 1.681.092.047.19.08.289.107v3.395c-.1.027-.197.062-.289.109-.663.34-.89 1.093-.508 1.68.386.593 1.238.788 1.897.451.075-.038.142-.083.206-.131l3.348 1.74c-.015.073-.025.148-.025.224 0 .679.623 1.23 1.388 1.23.766 0 1.389-.551 1.389-1.23 0-.066-.01-.129-.022-.192l3.462-1.697c.702.428 1.598.2 1.986-.395.382-.587.154-1.34-.509-1.68zm-5.843 1.846c.32-.036.63-.094.926-.187v-1.004c0-.678-.623-1.23-1.389-1.23-.765 0-1.388.552-1.388 1.23v1.004c.295.093.606.15.925.187v.963c-.16.051-.306.127-.433.223l-3.357-1.745c.03-.146.032-.295.001-.444l.904-.461c.285.342.634.641 1.034.88v-.607c0-1.13 1.038-2.05 2.314-2.05-.765 0-1.388-.552-1.388-1.23 0-.68.623-1.231 1.388-1.231.766 0 1.389.552 1.389 1.23 0 .679-.623 1.23-1.389 1.23 1.276 0 2.315.92 2.315 2.051v.606c.4-.238.748-.537 1.034-.88l.903.462c-.039.19-.03.381.029.563l-3.357 1.646c-.134-.106-.289-.188-.46-.243v-.963zm-5.554-1.899v-3.505c.134-.05.262-.106.371-.189l.908.465c-.225.453-.354.95-.354 1.477 0 .525.13 1.023.355 1.476l-.909.465c-.11-.083-.237-.14-.371-.189zm10.183-3.505v3.505c-.135.05-.262.106-.372.189l-.909-.465c.225-.453.355-.95.355-1.476s-.129-1.024-.353-1.477l.907-.465c.11.083.237.14.372.189zm-.84-.896l-.91.465c-.672-.804-1.7-1.349-2.879-1.466v-.965c.16-.05.306-.127.433-.223l3.357 1.745c-.03.146-.032.295 0 .444zm-4.715-1.001c-1.179.117-2.206.662-2.878 1.466l-.91-.465c.03-.149.029-.298-.002-.444l3.357-1.745c.127.096.273.172.433.223v.965z" transform="translate(88)"/>
                                </g>
                            </g>
                        </g>
                    </g>
                </g>
            </g>
        </g>
    </g>
</svg>
