<svg xmlns="http://www.w3.org/2000/svg" width="16" height="16" viewBox="0 0 16 16">
    <defs>
        <filter id="z1jpsiq0oa">
            <feColorMatrix in="SourceGraphic" values="0 0 0 0 1.000000 0 0 0 0 1.000000 0 0 0 0 1.000000 0 0 0 0.500000 0"/>
        </filter>
    </defs>
    <g fill="none" fill-rule="evenodd">
        <g>
            <g>
                <g filter="url(#z1jpsiq0oa)" transform="translate(-605 -320) translate(25 160) translate(445 152)">
                    <g>
                        <path fill="#000" fill-rule="nonzero" d="M11.643 4H8.786c-.198 0-.357.16-.357.357 0 .197.16.357.357.357h1.995L7.105 8.39c-.14.14-.14.366 0 .505.07.07.16.105.252.105s.183-.035.253-.105l3.676-3.676v1.995c0 .198.16.357.357.357.197 0 .357-.16.357-.357V4.357C12 4.16 11.84 4 11.643 4zM10.61 7.333c-.215 0-.389.174-.389.39v3.5H4.778V5.777h3.5c.215 0 .389-.174.389-.39 0-.214-.174-.388-.39-.388H4.39C4.174 5 4 5.174 4 5.389v6.222c0 .215.174.389.389.389h6.222c.215 0 .389-.174.389-.389V7.722c0-.215-.174-.389-.389-.389z" transform="translate(135 8)"/>
                    </g>
                </g>
            </g>
        </g>
    </g>
</svg>
