<svg xmlns="http://www.w3.org/2000/svg" width="24" height="24" viewBox="0 0 24 24">
    <defs>
        <filter id="ejnlny2x6a">
            <feColorMatrix in="SourceGraphic" values="0 0 0 0 1.000000 0 0 0 0 1.000000 0 0 0 0 1.000000 0 0 0 0.500000 0"/>
        </filter>
    </defs>
    <g fill="none" fill-rule="evenodd">
        <g filter="url(#ejnlny2x6a)" transform="translate(-1381 -8)">
            <g>
                <path fill="#000" fill-rule="nonzero" d="M13.264 11.99l5.44-5.44c.354-.353.354-.925 0-1.279-.354-.354-.926-.354-1.28 0l-5.44 5.44-5.439-5.44c-.354-.354-.926-.354-1.28 0-.353.354-.353.926 0 1.28l5.44 5.44-5.44 5.439c-.353.353-.353.926 0 1.28.177.176.409.264.64.264.232 0 .464-.088.64-.265l5.44-5.44 5.439 5.44c.176.177.408.265.64.265.231 0 .463-.088.64-.265.354-.353.354-.926 0-1.28l-5.44-5.439z" transform="translate(1381 8)"/>
            </g>
        </g>
    </g>
</svg>
