<svg xmlns="http://www.w3.org/2000/svg" width="48" height="48" viewBox="0 0 48 48">
    <g fill="none" fill-rule="evenodd">
        <g fill-rule="nonzero">
            <g>
                <path fill="#646CA3" d="M13.553 30.541c-.011.225-.163.417-.378.481s-.447-.014-.58-.196L4.953 23.57c-.186-.132-.28-.36-.238-.586.042-.224.21-.405.431-.462l10.724-4.36c.499-.205.798.064.663.594l-2.98 11.786zM7.239 37.437c-.409.357-.817.204-.92-.33L4.23 25.314c-.095-.537.148-.673.541-.299l7.273 6.906c.188.171.293.415.288.67-.005.254-.12.494-.314.658L7.24 37.437zM16.012 15.813c.17.166.24.408.184.639-.055.23-.228.415-.454.485l-10.66 4.336c-.5.204-.755-.05-.567-.564L8.892 8.738c.037-.218.207-.39.425-.43.218-.04.438.06.55.251l6.145 7.254zM4.846 35.433c.095.538-.065.603-.357.144L.352 29.08c-.291-.511-.27-1.143.053-1.634l1.847-2.516c.322-.438.663-.356.758.182l1.836 10.321zM3.543 19.974c-.187.51-.48.51-.65-.011L1.481 15.65c-.157-.573.001-1.185.415-1.612l5.036-4.642c.399-.368.571-.248.383.264L3.543 19.974zM2.214 21.637c.157.591.057 1.222-.276 1.736L.493 25.346c-.321.438-.539.351-.484-.192l.693-6.841c.055-.545.239-.565.408-.046l1.104 3.37zM7.895 6.225c.18.211 0 .685-.399 1.052l-2.264 2.09c-.4.367-.463.306-.142-.132l1.898-2.597c.32-.439.729-.625.909-.413M22.185 42.652c-.081.213-.282.357-.51.366-.229.008-.44-.12-.537-.328l-5.92-8.765c-.155-.16-.197-.4-.104-.602.092-.203.299-.33.522-.317l11.896-1.252c.535-.057.75.283.479.756l-5.826 10.142zM19.706 42.66c.306.451.136.676-.372.5L8.182 39.303c-.219-.033-.394-.201-.435-.42-.042-.217.059-.438.25-.55l4.78-4.188c.185-.17.436-.25.687-.217.25.033.472.175.607.388l5.635 8.343z" transform="translate(-96 -118) translate(96 118)"/>
                <path fill="#6EC6D8" d="M27.779 29.715c.351.415.204.8-.334.856l-12.072 1.268c-.23.046-.467-.037-.618-.216-.152-.179-.194-.426-.11-.646l3.02-11.96c.134-.53.53-.624.88-.21l9.234 10.908z" transform="translate(-96 -118) translate(96 118)"/>
                <path fill="#646CA3" d="M36.454 39.966c.175.141.243.376.172.59-.07.212-.266.36-.49.369L23.852 43.56c-.526.112-.734-.181-.463-.654l5.794-10.091c.095-.218.3-.366.536-.388.236-.021.465.087.598.283l6.137 7.255zM16.694 46.689c-.523.252-1.144.179-1.593-.188l-5.702-5.123c-.403-.36-.316-.51.193-.335l9.758 3.37c.51.177.538.532.064.79l-2.72 1.486zM29.945 47.179c-.47.352-1.093.42-1.628.179l-3.98-2.06c-.479-.247-.438-.543.085-.655l10.581-2.266c.526-.112.613.078.204.425l-5.262 4.377z" transform="translate(-96 -118) translate(96 118)"/>
                <path fill="#546095" d="M18.862 47.432c-.541-.025-.59-.258-.115-.517l2.127-1.158c.547-.261 1.182-.27 1.736-.023l3.11 1.61c.48.247.433.43-.101.408l-6.757-.32z" transform="translate(-96 -118) translate(96 118)"/>
                <path fill="#646CA3" d="M38.432 42.3c.178.212-.064.596-.538.853l-2.805 1.524c-.474.257-.522.185-.102-.162l2.362-1.97c.415-.346.903-.454 1.083-.245M31.342 29.59c-.5.204-.798-.065-.664-.595l2.976-11.785c.013-.224.165-.415.38-.479.214-.063.445.014.578.195l7.643 7.256c.187.132.28.36.238.585-.041.225-.21.406-.43.463l-10.721 4.36zM42.98 22.436c.094.539-.149.673-.54.3l-7.275-6.906c-.188-.172-.292-.416-.287-.67.005-.254.119-.494.313-.658l4.779-4.188c.408-.358.817-.204.919.33l2.09 11.792zM38.314 39.015c-.035.22-.205.396-.426.436-.22.04-.441-.063-.552-.257l-6.137-7.256c-.17-.165-.24-.408-.185-.638.056-.23.228-.415.455-.485l10.658-4.335c.499-.205.754.05.566.562l-4.379 11.973zM46.855 18.671c.291.511.27 1.143-.053 1.634l-1.846 2.516c-.322.439-.663.357-.76-.181l-1.832-10.321c-.096-.54.065-.604.357-.144l4.134 6.496zM45.727 32.1c.156.573-.002 1.185-.416 1.611l-5.033 4.644c-.398.368-.57.248-.383-.264l3.77-10.314c.188-.511.48-.511.65.012l1.412 4.31zM46.507 29.438c-.055.545-.24.565-.409.046l-1.105-3.37c-.156-.592-.056-1.222.276-1.736l1.446-1.976c.322-.438.54-.352.485.192l-.693 6.844zM40.222 41.114c-.32.439-.73.625-.909.413-.179-.211 0-.685.4-1.052l2.264-2.09c.398-.367.462-.306.141.131l-1.896 2.598zM31.99 13.823c.155.16.196.4.104.602-.093.204-.3.33-.523.317l-11.895 1.256c-.535.056-.75-.284-.48-.756L25.024 5.1c.081-.213.282-.358.51-.366.229-.009.44.12.537.326l5.92 8.763zM34.431 13.603c-.185.171-.437.251-.687.218-.25-.033-.472-.175-.607-.388L27.503 5.09c-.304-.45-.137-.675.372-.5l11.15 3.856c.22.033.394.201.436.42.041.217-.06.438-.251.55l-4.779 4.187zM29.542 28.734c-.14.289-.266.443-.378.463-.156.027-.334-.055-.503-.254L19.43 18.036c-.352-.415-.204-.8.334-.856l12.071-1.269c.23-.046.467.037.619.216.151.179.194.426.11.645M18.025 14.935c-.096.216-.301.362-.536.383-.235.022-.463-.086-.596-.28l-6.14-7.253c-.173-.142-.241-.376-.17-.589.07-.212.265-.36.489-.369l12.284-2.63c.526-.113.734.181.463.653l-5.794 10.085zM27.857 3.334c-.508-.178-.537-.53-.064-.791l2.72-1.484c.522-.253 1.144-.18 1.594.188l5.702 5.123c.403.362.316.51-.193.338l-9.759-3.374zM12.204 5.375c-.526.112-.613-.079-.204-.425L17.263.572c.47-.353 1.094-.421 1.629-.179l3.983 2.06c.479.248.44.543-.085.656L12.204 5.375zM26.332 1.999c-.548.26-1.183.267-1.737.019L21.488.408c-.48-.249-.433-.431.105-.408l6.755.317c.537.025.589.257.115.515L26.332 2zM9.858 5.205c-.415.347-.902.458-1.081.247-.179-.212.062-.592.537-.854l2.805-1.524c.475-.258.522-.185.103.161l-2.364 1.97zM6.258 39.861c.205-.181.673 0 1.035.409l2.053 2.305c.361.408.306.47-.128.144l-2.553-1.933c-.431-.326-.614-.743-.407-.925M41.707 8.788c.204-.182.585.063.838.546l1.498 2.86c.253.483.181.531-.159.107L41.951 9.89c-.34-.424-.448-.92-.244-1.1M40.544 6.966c.432.326.612.743.408.92-.204.176-.67.005-1.035-.403l-2.054-2.304c-.362-.409-.307-.47.127-.144l2.554 1.931zM5.258 37.863c.34.424.448.919.24 1.1-.207.183-.585-.063-.838-.546l-1.498-2.855c-.253-.483-.182-.531.155-.108l1.94 2.409z" transform="translate(-96 -118) translate(96 118)"/>
            </g>
        </g>
    </g>
</svg>
