<svg xmlns="http://www.w3.org/2000/svg" width="32" height="33" viewBox="0 0 32 33">
    <defs>
        <filter id="m46phey49a">
            <feColorMatrix in="SourceGraphic" values="0 0 0 0 1.000000 0 0 0 0 1.000000 0 0 0 0 1.000000 0 0 0 1.000000 0"/>
        </filter>
    </defs>
    <g fill="none" fill-rule="evenodd">
        <g>
            <g>
                <g>
                    <g>
                        <g filter="url(#m46phey49a)" transform="translate(-1084 -1441) translate(25 1395) translate(40 24.146) translate(1019) translate(0 22.134)">
                            <path fill="#000" fill-rule="nonzero" d="M16 9.098c-3.867 0-7 3.213-7 7.177 0 3.172 2.005 5.862 4.786 6.81.35.068.479-.154.479-.345 0-.17-.006-.622-.01-1.22-1.946.432-2.357-.963-2.357-.963-.319-.829-.779-1.05-.779-1.05-.634-.445.05-.436.05-.436.702.05 1.071.74 1.071.74.625 1.097 1.639.78 2.04.597.062-.465.242-.78.443-.96-1.555-.18-3.189-.797-3.189-3.547 0-.784.271-1.424.72-1.926-.078-.181-.315-.911.062-1.9 0 0 .586-.192 1.925.736.56-.16 1.155-.238 1.75-.242.595.004 1.19.083 1.75.242 1.33-.928 1.916-.736 1.916-.736.376.989.14 1.719.07 1.9.446.502.717 1.142.717 1.926 0 2.757-1.636 3.364-3.193 3.54.245.216.472.656.472 1.329 0 .96-.009 1.732-.009 1.965 0 .188.123.413.482.341 2.8-.942 4.804-3.634 4.804-6.8 0-3.965-3.134-7.178-7-7.178z"/>
                        </g>
                    </g>
                </g>
            </g>
        </g>
    </g>
</svg>
